<svg xmlns="http://www.w3.org/2000/svg" width="17.443" height="21.415" viewBox="0 0 17.443 21.415"><defs><style>.a{fill:#333;}</style></defs><path class="a" d="M62.752,20.033H61.37V3.109a.691.691,0,0,0-.691-.691H55.5V.691A.691.691,0,0,0,54.808,0H50.015a.691.691,0,0,0-.691.691V2.418h-.561a.691.691,0,0,0-.691.691V20.033H46.691a.691.691,0,1,0,0,1.382H62.752a.691.691,0,0,0,0-1.382ZM50.706,1.382h3.411V2.418H50.706ZM53.34,20.033V17.1H56.1v2.936Zm4.145,0V17.1h.3a.691.691,0,0,0,0-1.382H51.656a.691.691,0,0,0,0,1.382h.3v2.936h-2.5V3.8H59.989V20.033Zm-3.756-14.2a.691.691,0,0,1-.691.691H52.26a.691.691,0,1,1,0-1.382h.777A.691.691,0,0,1,53.728,5.829Zm4.1,0a.691.691,0,0,1-.691.691h-.777a.691.691,0,0,1,0-1.382h.777A.691.691,0,0,1,57.83,5.829Zm-4.1,2.59a.691.691,0,0,1-.691.691H52.26a.691.691,0,1,1,0-1.382h.777A.691.691,0,0,1,53.728,8.419Zm4.1,0a.691.691,0,0,1-.691.691h-.777a.691.691,0,1,1,0-1.382h.777A.691.691,0,0,1,57.83,8.419Zm-4.1,2.59a.691.691,0,0,1-.691.691H52.26a.691.691,0,1,1,0-1.382h.777A.691.691,0,0,1,53.728,11.009Zm4.1,0a.691.691,0,0,1-.691.691h-.777a.691.691,0,1,1,0-1.382h.777A.691.691,0,0,1,57.83,11.009Zm-4.1,2.59a.691.691,0,0,1-.691.691H52.26a.691.691,0,1,1,0-1.382h.777A.691.691,0,0,1,53.728,13.6Zm4.1,0a.691.691,0,0,1-.691.691h-.777a.691.691,0,0,1,0-1.382h.777A.691.691,0,0,1,57.83,13.6Z" transform="translate(-46)"/></svg>