<svg xmlns="http://www.w3.org/2000/svg" width="14.414" height="18" viewBox="0 0 14.414 18"><defs><style>.a{fill:#333;}</style></defs><g transform="translate(-50.141)"><path class="a" d="M65.042,14.508l-4.2-1.292V11.728a4.212,4.212,0,0,0,1.582-3.291V8.121c0-.01-.069-3.839,0-3.867V4.219a4.219,4.219,0,1,0-8.437,0v.035c.019.033.016,3.858,0,3.867v.316a4.212,4.212,0,0,0,1.582,3.291v1.488l-4.2,1.292a.528.528,0,0,0-.372.5v2.461a.528.528,0,0,0,.527.527H64.887a.528.528,0,0,0,.527-.527V15.012A.528.528,0,0,0,65.042,14.508Zm-10-6.07V4.219a3.164,3.164,0,1,1,6.328,0V8.438a3.164,3.164,0,1,1-6.328,0Zm1.582,3.911a4.217,4.217,0,0,0,3.164,0l.013,1.375-1.6,1.1-1.6-1.1Zm7.734,4.6h-12.3V15.4l3.55-1.092h0l2.3,1.593a.527.527,0,0,0,.6,0l2.3-1.593.12.037,3.43,1.055Z" transform="translate(-0.859)"/></g></svg>