<svg xmlns="http://www.w3.org/2000/svg" width="24" height="24" viewBox="0 0 24 24"><defs><style>.a{fill:#333;}</style></defs><g transform="translate(-0.896 -0.9)"><g transform="translate(0.895 0.9)"><path class="a" d="M12.911,24.9a11.946,11.946,0,0,0,6.713-2.048l4.105,1.061a.934.934,0,0,0,1.123-1.186L23.48,18.294l.736-1.461a.522.522,0,0,0,.05-.125A11.995,11.995,0,1,0,12.911,24.9Zm6.526-4.008a.885.885,0,0,0-.549.187A10.127,10.127,0,1,1,23.043,12.9a9.943,9.943,0,0,1-.5,3.147l-.886,1.736a.911.911,0,0,0-.062.7l.986,3.2-2.907-.749A.847.847,0,0,0,19.437,20.892Z" transform="translate(-0.895 -0.9)"/></g><g transform="translate(9.304 6.338)"><g transform="translate(1.36)"><path class="a" d="M10.09,7.52a1.78,1.78,0,1,1,1.78-1.78A1.784,1.784,0,0,1,10.09,7.52Zm0-2.55a.78.78,0,1,0,.78.78A.794.794,0,0,0,10.09,4.97Z" transform="translate(-8.31 -3.96)"/></g><g transform="translate(0 3.75)"><path class="a" d="M12.62,17.03H9.96a1.314,1.314,0,0,1-1.31-1.31V15.6c0-.04.01-3.78.02-5.15H8.32a1.37,1.37,0,1,1,0-2.74h3.06a1.372,1.372,0,0,1,1.37,1.37l-.01,5.22a1.313,1.313,0,0,1,1.19,1.3v.12A1.321,1.321,0,0,1,12.62,17.03ZM8.32,8.71a.369.369,0,0,0-.37.37.363.363,0,0,0,.37.37h.85a.469.469,0,0,1,.35.15.529.529,0,0,1,.15.35s-.02,5.58-.02,5.65v.12a.312.312,0,0,0,.31.31h2.65a.312.312,0,0,0,.31-.31V15.6a.312.312,0,0,0-.31-.31h-.38a.469.469,0,0,1-.35-.15.509.509,0,0,1-.15-.35l.01-4.94h0V9.08a.361.361,0,0,0-.37-.36H8.32Z" transform="translate(-6.95 -7.71)"/></g></g></g></svg>