<svg xmlns="http://www.w3.org/2000/svg" width="20.013" height="20" viewBox="0 0 20.013 20"><defs><style>.a{fill:#333;}</style></defs><g transform="translate(11.696 10.906)"><path class="a" d="M14.562,12.033a.713.713,0,0,0-.727-.383c-.319,0-.638.115-.714.383l-1.658,5.4a.249.249,0,0,0-.013.089c0,.281.408.459.7.459.191,0,.332-.064.383-.217l.332-1.135H14.83l.332,1.135c.038.166.191.217.383.217.306,0,.7-.191.7-.459,0-.026-.013-.051-.013-.089Zm-1.467,3.7.753-2.64.753,2.64Z" transform="translate(-11.45 -11.65)"/></g><path class="a" d="M20.137,11.251H14.129V8.687L16.081,7.3a.6.6,0,0,0,.242-.472.563.563,0,0,0-.242-.472L14.1,4.937A2.157,2.157,0,0,0,11.974,3.1H4.436A2.161,2.161,0,0,0,2.28,5.256v7.538a2.161,2.161,0,0,0,2.156,2.156h6.008v2.564L8.492,18.9a.6.6,0,0,0-.242.472.58.58,0,0,0,.242.472l1.977,1.416A2.157,2.157,0,0,0,12.6,23.1h7.538a2.161,2.161,0,0,0,2.156-2.156V13.406A2.161,2.161,0,0,0,20.137,11.251Zm-15.7,2.513a.983.983,0,0,1-.982-.982V5.243a.983.983,0,0,1,.982-.982h7.538a.983.983,0,0,1,.982.982.563.563,0,0,0,.242.472l1.531,1.1L13.2,7.909a.6.6,0,0,0-.242.472v2.87H12.6a2.161,2.161,0,0,0-2.156,2.156v.357Zm16.684,7.168a.983.983,0,0,1-.982.982H12.6a.983.983,0,0,1-.982-.982.563.563,0,0,0-.242-.472l-1.531-1.1,1.531-1.084a.6.6,0,0,0,.242-.472v-4.4a.983.983,0,0,1,.982-.982h7.538a.983.983,0,0,1,.982.982Z" transform="translate(-2.28 -3.1)"/><g transform="translate(2.946 2.666)"><path class="a" d="M9.769,7.562a.43.43,0,0,0,.434-.434.441.441,0,0,0-.434-.446H7.83V5.624a.434.434,0,0,0-.867,0V6.682H5.024a.434.434,0,1,0,0,.867h.6a4.285,4.285,0,0,0,1.084,2.4,3.189,3.189,0,0,1-1.684.472.434.434,0,0,0,0,.867,4.217,4.217,0,0,0,2.372-.74,4.121,4.121,0,0,0,2.372.74.434.434,0,0,0,0-.867,3.234,3.234,0,0,1-1.7-.472,4.142,4.142,0,0,0,1.1-2.385ZM7.4,9.412A3.285,3.285,0,0,1,6.5,7.562H8.289A3.285,3.285,0,0,1,7.4,9.412Z" transform="translate(-4.59 -5.19)"/></g></svg>