<svg xmlns="http://www.w3.org/2000/svg" width="23.005" height="16.955" viewBox="0 0 23.005 16.955"><defs><style>.a{fill:#333;}</style></defs><g transform="translate(0 0)"><path class="a" d="M30.466,18.589a1.688,1.688,0,0,0-1.352-.666H21.6a.645.645,0,1,0,0,1.291h7.517a.412.412,0,0,1,.329.165.407.407,0,0,1,.07.358l-1.552,5.824a.413.413,0,0,1-.4.307H16.384a.414.414,0,0,1-.4-.325l-1.935-8.328a1.7,1.7,0,0,0-1.663-1.326H8.462a.646.646,0,0,0,0,1.292h3.92a.413.413,0,0,1,.4.326l1.934,8.327a1.7,1.7,0,0,0,1.664,1.327H27.562a1.711,1.711,0,0,0,1.65-1.269l1.552-5.822A1.7,1.7,0,0,0,30.466,18.589Z" transform="translate(-7.817 -15.889)"/><path class="a" d="M17.088,25.614a2.367,2.367,0,1,0,.37.478A3.918,3.918,0,0,0,17.088,25.614Zm-1.674.6a1.063,1.063,0,0,1,.758.313,2.426,2.426,0,0,1,.169.219,1.075,1.075,0,1,1-.928-.532Z" transform="translate(-5.971 -12.702)"/><path class="a" d="M21.689,24.921a2.368,2.368,0,1,0,2.3,2.925,3.848,3.848,0,0,0,.066-.558A2.372,2.372,0,0,0,21.689,24.921Zm0,1.292a1.076,1.076,0,0,1,1.075,1.075,2.328,2.328,0,0,1-.03.255,1.075,1.075,0,1,1-1.045-1.33Z" transform="translate(-3.759 -12.702)"/></g></svg>