<?xml version="1.0" encoding="utf-8"?>
<!-- Generator: Adobe Illustrator 23.0.1, SVG Export Plug-In . SVG Version: 6.00 Build 0)  -->
<svg version="1.1" id="Capa_1" xmlns="http://www.w3.org/2000/svg" xmlns:xlink="http://www.w3.org/1999/xlink" x="0px" y="0px"
	 viewBox="0 0 1235 650" style="enable-background:new 0 0 1235 650;" xml:space="preserve">
<style type="text/css">
	.st0{fill:#B22234;}
	.st1{fill:#FFFFFF;}
	.st2{fill:#3C3B6E;}
</style>
<rect class="st0" width="1235" height="650"/>
<g>
	<path class="st1" d="M1235,599H0v-48h1235V599z M1235,499H0v-48h1235V499z M1235,399H0v-48h1235V399z M1235,299H0v-48h1235V299z
		 M1235,199H0v-48h1235V199z M1235,99H0V51h1235V99z"/>
</g>
<rect class="st2" width="494" height="350"/>
<g>
	<g id="s18">
		<g id="s9">
			<g id="s5">
				<g id="s4">
					<path id="s" class="st1" d="M41.2,15l11.8,36.2L22.1,28.8h38L29.4,51.2L41.2,15z"/>
					<g>
						<path class="st1" d="M41.2,85l11.8,36.2L22.1,98.8h38l-30.8,22.4L41.2,85z"/>
					</g>
					<g>
						<path class="st1" d="M41.2,155l11.8,36.2l-30.8-22.4h38l-30.8,22.4L41.2,155z"/>
					</g>
					<g>
						<path class="st1" d="M41.2,225l11.8,36.2l-30.8-22.4h38l-30.8,22.4L41.2,225z"/>
					</g>
				</g>
				<g>
					<path class="st1" d="M41.2,295l11.8,36.2l-30.8-22.4h38l-30.8,22.4L41.2,295z"/>
				</g>
			</g>
			<g>
				<g>
					<path class="st1" d="M82.3,50l11.8,36.2L63.3,63.8h38L70.6,86.2L82.3,50z"/>
					<g>
						<path class="st1" d="M82.3,120l11.8,36.2l-30.8-22.4h38l-30.8,22.4L82.3,120z"/>
					</g>
					<g>
						<path class="st1" d="M82.3,190l11.8,36.2l-30.8-22.4h38l-30.8,22.4L82.3,190z"/>
					</g>
					<g>
						<path class="st1" d="M82.3,260l11.8,36.2l-30.8-22.4h38l-30.8,22.4L82.3,260z"/>
					</g>
				</g>
			</g>
		</g>
		<g>
			<g>
				<g>
					<g>
						<path class="st1" d="M123.5,15l11.8,36.2l-30.8-22.4h38l-30.8,22.4L123.5,15z"/>
						<g>
							<path class="st1" d="M123.5,85l11.8,36.2l-30.8-22.4h38l-30.8,22.4L123.5,85z"/>
						</g>
						<g>
							<path class="st1" d="M123.5,155l11.8,36.2l-30.8-22.4h38l-30.8,22.4L123.5,155z"/>
						</g>
						<g>
							<path class="st1" d="M123.5,225l11.8,36.2l-30.8-22.4h38l-30.8,22.4L123.5,225z"/>
						</g>
					</g>
					<g>
						<path class="st1" d="M123.5,295l11.8,36.2l-30.8-22.4h38l-30.8,22.4L123.5,295z"/>
					</g>
				</g>
				<g>
					<g>
						<path class="st1" d="M164.7,50l11.8,36.2l-30.8-22.4h38l-30.8,22.4L164.7,50z"/>
						<g>
							<path class="st1" d="M164.7,120l11.8,36.2l-30.8-22.4h38l-30.8,22.4L164.7,120z"/>
						</g>
						<g>
							<path class="st1" d="M164.7,190l11.8,36.2l-30.8-22.4h38l-30.8,22.4L164.7,190z"/>
						</g>
						<g>
							<path class="st1" d="M164.7,260l11.8,36.2l-30.8-22.4h38l-30.8,22.4L164.7,260z"/>
						</g>
					</g>
				</g>
			</g>
		</g>
	</g>
	<g>
		<g>
			<g>
				<g>
					<g>
						<path class="st1" d="M205.8,15l11.8,36.2l-30.8-22.4h38l-30.8,22.4L205.8,15z"/>
						<g>
							<path class="st1" d="M205.8,85l11.8,36.2l-30.8-22.4h38l-30.8,22.4L205.8,85z"/>
						</g>
						<g>
							<path class="st1" d="M205.8,155l11.8,36.2l-30.8-22.4h38l-30.8,22.4L205.8,155z"/>
						</g>
						<g>
							<path class="st1" d="M205.8,225l11.8,36.2l-30.8-22.4h38l-30.8,22.4L205.8,225z"/>
						</g>
					</g>
					<g>
						<path class="st1" d="M205.8,295l11.8,36.2l-30.8-22.4h38l-30.8,22.4L205.8,295z"/>
					</g>
				</g>
				<g>
					<g>
						<path class="st1" d="M247,50l11.8,36.2L228,63.8h38l-30.8,22.4L247,50z"/>
						<g>
							<path class="st1" d="M247,120l11.8,36.2L228,133.8h38l-30.8,22.4L247,120z"/>
						</g>
						<g>
							<path class="st1" d="M247,190l11.8,36.2L228,203.8h38l-30.8,22.4L247,190z"/>
						</g>
						<g>
							<path class="st1" d="M247,260l11.8,36.2L228,273.8h38l-30.8,22.4L247,260z"/>
						</g>
					</g>
				</g>
			</g>
			<g>
				<g>
					<g>
						<g>
							<path class="st1" d="M288.2,15l11.8,36.2l-30.8-22.4h38l-30.8,22.4L288.2,15z"/>
							<g>
								<path class="st1" d="M288.2,85l11.8,36.2l-30.8-22.4h38l-30.8,22.4L288.2,85z"/>
							</g>
							<g>
								<path class="st1" d="M288.2,155l11.8,36.2l-30.8-22.4h38l-30.8,22.4L288.2,155z"/>
							</g>
							<g>
								<path class="st1" d="M288.2,225l11.8,36.2l-30.8-22.4h38l-30.8,22.4L288.2,225z"/>
							</g>
						</g>
						<g>
							<path class="st1" d="M288.2,295l11.8,36.2l-30.8-22.4h38l-30.8,22.4L288.2,295z"/>
						</g>
					</g>
					<g>
						<g>
							<path class="st1" d="M329.3,50l11.8,36.2l-30.8-22.4h38l-30.8,22.4L329.3,50z"/>
							<g>
								<path class="st1" d="M329.3,120l11.8,36.2l-30.8-22.4h38l-30.8,22.4L329.3,120z"/>
							</g>
							<g>
								<path class="st1" d="M329.3,190l11.8,36.2l-30.8-22.4h38l-30.8,22.4L329.3,190z"/>
							</g>
							<g>
								<path class="st1" d="M329.3,260l11.8,36.2l-30.8-22.4h38l-30.8,22.4L329.3,260z"/>
							</g>
						</g>
					</g>
				</g>
			</g>
		</g>
	</g>
	<g>
		<g>
			<g>
				<g>
					<path class="st1" d="M370.5,15l11.8,36.2l-30.8-22.4h38l-30.8,22.4L370.5,15z"/>
					<g>
						<path class="st1" d="M370.5,85l11.8,36.2l-30.8-22.4h38l-30.8,22.4L370.5,85z"/>
					</g>
					<g>
						<path class="st1" d="M370.5,155l11.8,36.2l-30.8-22.4h38l-30.8,22.4L370.5,155z"/>
					</g>
					<g>
						<path class="st1" d="M370.5,225l11.8,36.2l-30.8-22.4h38l-30.8,22.4L370.5,225z"/>
					</g>
				</g>
				<g>
					<path class="st1" d="M370.5,295l11.8,36.2l-30.8-22.4h38l-30.8,22.4L370.5,295z"/>
				</g>
			</g>
			<g>
				<g>
					<path class="st1" d="M411.7,50l11.8,36.2l-30.8-22.4h38l-30.8,22.4L411.7,50z"/>
					<g>
						<path class="st1" d="M411.7,120l11.8,36.2l-30.8-22.4h38l-30.8,22.4L411.7,120z"/>
					</g>
					<g>
						<path class="st1" d="M411.7,190l11.8,36.2l-30.8-22.4h38l-30.8,22.4L411.7,190z"/>
					</g>
					<g>
						<path class="st1" d="M411.7,260l11.8,36.2l-30.8-22.4h38l-30.8,22.4L411.7,260z"/>
					</g>
				</g>
			</g>
		</g>
	</g>
	<g>
		<g>
			<g>
				<path class="st1" d="M452.8,15l11.8,36.2l-30.8-22.4h38l-30.8,22.4L452.8,15z"/>
				<g>
					<path class="st1" d="M452.8,85l11.8,36.2l-30.8-22.4h38l-30.8,22.4L452.8,85z"/>
				</g>
				<g>
					<path class="st1" d="M452.8,155l11.8,36.2l-30.8-22.4h38l-30.8,22.4L452.8,155z"/>
				</g>
				<g>
					<path class="st1" d="M452.8,225l11.8,36.2l-30.8-22.4h38l-30.8,22.4L452.8,225z"/>
				</g>
			</g>
			<g>
				<path class="st1" d="M452.8,295l11.8,36.2l-30.8-22.4h38l-30.8,22.4L452.8,295z"/>
			</g>
		</g>
	</g>
</g>
</svg>
