<svg xmlns="http://www.w3.org/2000/svg" width="24" height="24" viewBox="0 0 24 24">
  <g id="Group_1778" data-name="Group 1778" transform="translate(-76 -412)">
    <g id="Ellipse_108" data-name="Ellipse 108" transform="translate(76 412)" fill="#fff" stroke="#72c15e" stroke-width="1">
      <circle cx="12" cy="12" r="12" stroke="none"/>
      <circle cx="12" cy="12" r="11.5" fill="none"/>
    </g>
    <path id="np_tick_1285008_000000" d="M13.737,24.2c-.507-.468-1.326-1.326-1.872-1.872-.546-.507-.9-.078-1.56.624-.741.741,0,1.131,1.053,2.184l1.911,1.911c.7.624,1.287-.312,2.223-1.209l3.823-3.862c1.209-1.17,1.482-1.17.507-2.106-.858-.9-.819-.9-2.184.507-.624.585-3.706,3.706-3.9,3.823Z" transform="translate(72.995 400.75)" fill="#72c15e" fill-rule="evenodd"/>
  </g>
</svg>
