<svg xmlns="http://www.w3.org/2000/svg" width="50" height="50" viewBox="0 0 50 50"><defs><style>.a{fill:#e6e6e6;}</style></defs><g transform="translate(0 -0.001)"><path class="a" d="M130.629,33.64h16.818l2.695,5.386a1.563,1.563,0,0,0,1.4.864h7.813a1.58,1.58,0,0,1,1.581,1.561v26.2l2.993,3a4.658,4.658,0,0,0,.13-1.056l-.017-28.142a4.694,4.694,0,0,0-4.687-4.683h-6.847l-2.695-5.386a1.549,1.549,0,0,0-1.4-.848h-18.75a1.548,1.548,0,0,0-1.4.848l-1.2,2.4,2.33,2.33Z" transform="translate(-114.058 -27.404)"/><path class="a" d="M223.761,153.572a12.325,12.325,0,0,0,.619-3.69,12.514,12.514,0,0,0-12.5-12.5,12.324,12.324,0,0,0-3.69.619l2.614,2.614a9.175,9.175,0,0,1,1.075-.109,9.385,9.385,0,0,1,9.375,9.375,9.175,9.175,0,0,1-.109,1.075Z" transform="translate(-186.881 -123.319)"/><path class="a" d="M50,47.792,2.209,0,0,2.21,7.158,9.368l-2.478,0A4.7,4.7,0,0,0,0,14.059v28.13a4.693,4.693,0,0,0,4.687,4.687H44.666L47.791,50,50,47.791ZM18.114,20.324,31.24,33.45A9.2,9.2,0,0,1,25,35.938a9.385,9.385,0,0,1-9.375-9.375,9.2,9.2,0,0,1,2.488-6.239ZM4.688,43.751a1.564,1.564,0,0,1-1.563-1.563V14.059A1.565,1.565,0,0,1,4.684,12.5l5.594-.008,5.655,5.655a12.258,12.258,0,0,0-3.433,8.42A12.514,12.514,0,0,0,25,39.063a12.258,12.258,0,0,0,8.42-3.433l8.121,8.121Z"/></g></svg>