<svg xmlns="http://www.w3.org/2000/svg" width="40" height="40" viewBox="0 0 40 40"><defs><style>.a{fill:#72c15e;}</style></defs><g transform="translate(-2 -2)"><path class="a" d="M22,42A20,20,0,1,1,42,22,20.005,20.005,0,0,1,22,42ZM22,4.209A17.791,17.791,0,1,0,39.791,22,17.835,17.835,0,0,0,22,4.209Z"/><path class="a" d="M37.215,47.7a1.134,1.134,0,0,1-.789-.333l-4.238-4.236a1.155,1.155,0,0,1-.125-1.537,1.1,1.1,0,0,1,1.619-.083l3.531,3.531h.042l7.85-7.85a1.152,1.152,0,0,1,1.537-.125,1.1,1.1,0,0,1,.083,1.619L38,47.41a1.089,1.089,0,0,1-.787.29Z" transform="translate(-17.374 -20.3)"/></g></svg>