<svg xmlns="http://www.w3.org/2000/svg" width="18" height="15.292" viewBox="0 0 18 15.292">
  <g id="np_upload_823727_000000" transform="translate(-6.398 -13)">
    <path id="Path_5481" data-name="Path 5481" d="M23.551,46.418a.825.825,0,0,0-.848.82v5.636H8.093V47.218a.848.848,0,0,0-1.7,0v6.476a.825.825,0,0,0,.848.82h16.3a.825.825,0,0,0,.848-.82V47.218a.821.821,0,0,0-.848-.8Z" transform="translate(0 -26.221)" fill="#878787"/>
    <path id="Path_5482" data-name="Path 5482" d="M31.348,13.239a.3.3,0,0,0-.084-.06c-.022,0-.022-.02-.064-.04a.752.752,0,0,0-.466-.14,1.018,1.018,0,0,0-.34.06,1.352,1.352,0,0,0-.3.16l-4.241,4.037a.82.82,0,0,0-.254.6.736.736,0,0,0,.254.54.84.84,0,0,0,.615.24.807.807,0,0,0,.615-.24l2.757-2.619v8.315a.871.871,0,0,0,1.74,0V15.778L34.4,18.4a.84.84,0,0,0,.615.24.807.807,0,0,0,.615-.24.82.82,0,0,0,.254-.6.736.736,0,0,0-.254-.54Z" transform="translate(-15.365)" fill="#878787"/>
  </g>
</svg>
