<svg xmlns="http://www.w3.org/2000/svg" width="9.499" height="9.499" viewBox="0 0 9.499 9.499"><defs><style>.a{fill:#c40247;}</style></defs><g transform="translate(1.415 1.409)"><path class="a" d="M-1.206,7.071l.762.773a.724.724,0,0,0,1.023.007l2.743-2.72L6.042,7.874a.724.724,0,0,0,1.023.007l.773-.762A.724.724,0,0,0,7.845,6.1L5.125,3.353,7.869.634A.724.724,0,0,0,7.876-.39l-.762-.773A.724.724,0,0,0,6.091-1.17L3.347,1.55.628-1.194A.724.724,0,0,0-.4-1.2l-.773.762A.724.724,0,0,0-1.175.584l2.72,2.743L-1.2,6.048A.723.723,0,0,0-1.206,7.071Z" transform="translate(0 0)"/></g></svg>