<svg xmlns="http://www.w3.org/2000/svg" width="16.083" height="16.071" viewBox="0 0 16.083 16.071"><defs><style>.a{fill:#0aa9cb;}</style></defs><g transform="translate(0 0)"><path class="a" d="M8.926,16.971a8.01,8.01,0,0,1-4.5-1.371l-2.751.711a.625.625,0,0,1-.753-.794l.92-2.968-.493-.978a.349.349,0,0,1-.033-.084,8.038,8.038,0,1,1,15.661-2.55A8.069,8.069,0,0,1,8.926,16.971ZM4.553,14.287a.594.594,0,0,1,.368.125A6.78,6.78,0,1,0,2.137,8.936a6.654,6.654,0,0,0,.334,2.107l.594,1.162a.61.61,0,0,1,.042.468l-.661,2.141,1.948-.5A.568.568,0,0,1,4.553,14.287Z" transform="translate(-0.895 -0.9)"/></g><g transform="translate(5.063 2.559)"><g transform="translate(1.137)"><path class="a" d="M9.8,6.937a1.488,1.488,0,1,1,1.488-1.488A1.492,1.492,0,0,1,9.8,6.937ZM9.8,4.8a.652.652,0,1,0,.652.652A.664.664,0,0,0,9.8,4.8Z" transform="translate(-8.31 -3.96)"/></g><g transform="translate(0 3.136)"><path class="a" d="M11.691,15.5H9.467a1.1,1.1,0,0,1-1.1-1.1v-.1c0-.033.008-3.161.017-4.306H8.1a1.146,1.146,0,0,1,0-2.291h2.559A1.147,1.147,0,0,1,11.8,8.856l-.008,4.365a1.1,1.1,0,0,1,1,1.087v.1A1.1,1.1,0,0,1,11.691,15.5ZM8.1,8.546a.309.309,0,0,0-.309.309.3.3,0,0,0,.309.309h.711A.392.392,0,0,1,9.1,9.29a.442.442,0,0,1,.125.293s-.017,4.666-.017,4.724v.1a.261.261,0,0,0,.259.259h2.216a.261.261,0,0,0,.259-.259v-.1a.261.261,0,0,0-.259-.259h-.318a.392.392,0,0,1-.293-.125.426.426,0,0,1-.125-.293L10.955,9.5h0V8.856a.3.3,0,0,0-.309-.3H8.1Z" transform="translate(-6.95 -7.71)"/></g></g></svg>