<svg xmlns="http://www.w3.org/2000/svg" width="18" height="18.581" viewBox="0 0 18 18.581"><defs><style>.a{fill:#e6e6e6;}</style></defs><g transform="translate(-0.5)"><path class="a" d="M17.929,11.978H15.974V.571A.571.571,0,0,0,15.4,0H1.071A.571.571,0,0,0,.5.571V15.623a2.962,2.962,0,0,0,2.959,2.959H15.405a3.414,3.414,0,0,0,2.143-.722,2.4,2.4,0,0,0,.952-1.882V12.549A.571.571,0,0,0,17.929,11.978Zm-3.1,5.461H3.459a1.819,1.819,0,0,1-1.817-1.817V1.142h13.19Zm2.526-1.462a1.59,1.59,0,0,1-1.384,1.4V13.12h1.384Zm0,0"/><path class="a" d="M92.7,318.787h7.681a.571.571,0,1,0,0-1.142H92.7a.571.571,0,1,0,0,1.142Zm0,0" transform="translate(-88.307 -306.117)"/><path class="a" d="M92.7,393.978h7.681a.571.571,0,1,0,0-1.142H92.7a.571.571,0,1,0,0,1.142Zm0,0" transform="translate(-88.307 -378.579)"/><path class="a" d="M155.043,91.5l.011.006.266.125V93.1a2.076,2.076,0,0,1-.623-.261.571.571,0,1,0-.612.964,3.256,3.256,0,0,0,1.235.46v.089a.571.571,0,1,0,1.142,0V94.28a2.029,2.029,0,0,0,.534-.144,1.619,1.619,0,0,0,1.066-1.587c-.077-.9-.919-1.314-1.323-1.515l-.011-.005-.266-.125V89.438a2.072,2.072,0,0,1,.623.261.571.571,0,0,0,.612-.964,3.259,3.259,0,0,0-1.235-.461v0a.571.571,0,0,0-1.141-.014,2.018,2.018,0,0,0-.535.144,1.619,1.619,0,0,0-1.066,1.587C153.8,90.883,154.638,91.3,155.043,91.5Zm1.882,1.146c.014.162-.139.341-.371.436l-.018.008a.562.562,0,0,1-.074.026V92.18C156.771,92.355,156.912,92.5,156.925,92.647Zm-1.7-3.194.018-.008a.54.54,0,0,1,.074-.027v.938c-.309-.175-.45-.32-.463-.467S155,89.548,155.228,89.453Zm0,0" transform="translate(-147.654 -84.516)"/></g></svg>